<?xml version="1.0" encoding="UTF-8"?>
<svg width="26px" height="26px" viewBox="0 0 26 26" version="1.1" xmlns="http://www.w3.org/2000/svg" xmlns:xlink="http://www.w3.org/1999/xlink">
    <title>床铺</title>
    <defs>
        <linearGradient x1="85.7232364%" y1="-81.8511067%" x2="50%" y2="76.6200946%" id="linearGradient-1">
            <stop stop-color="#C2EEED" offset="0%"></stop>
            <stop stop-color="#09A6A0" offset="100%"></stop>
        </linearGradient>
        <path d="M11.7022332,0 C11.5378064,0 11.4044665,0.133006327 11.4044665,0.297021722 L11.4044665,1.54965143 L0.595533501,1.54965143 L0.595533501,0.297021722 C0.595533501,0.133006327 0.46219355,0 0.29776675,0 C0.133339951,0 0,0.133006327 0,0.297021722 L0,13.7029783 C0,13.8669937 0.133310173,14 0.29776675,14 C0.462223328,14 0.595533501,13.8669937 0.595533501,13.7029783 L0.595533501,12.9849877 L11.4044665,12.9849877 L11.4044665,13.7029783 C11.4044665,13.8669937 11.5378064,14 11.7022332,14 C11.8666898,14 12,13.8669937 12,13.7029783 L12,0.297021722 C12,0.133006327 11.86666,0 11.7022332,0 Z M1.96526055,7.46038367 L4.28784119,7.46038367 L4.28784119,8.61876838 L1.96526055,8.61876838 L1.96526055,7.46038367 Z M4.28784119,6.86634023 L1.96526055,6.86634023 L1.96526055,5.70795552 L4.28784119,5.70795552 L4.28784119,6.86634023 Z M1.96526055,9.21281183 L4.28784119,9.21281183 L4.28784119,10.4008987 L1.96526055,10.4008987 L1.96526055,9.21281183 Z M4.28784119,5.11391208 L1.96526055,5.11391208 L1.96526055,4.1337404 L4.28784119,4.1337404 L4.28784119,5.11391208 Z M0.595533501,4.1337404 L1.36972705,4.1337404 L1.36972705,10.4008987 L0.595533501,10.4008987 L0.595533501,4.1337404 Z M4.88337469,10.4008987 L4.88337469,4.1337404 L11.4044665,4.1337404 L11.4044665,10.4008987 L4.88337469,10.4008987 Z" id="path-2"></path>
        <linearGradient x1="65.0071895%" y1="-81.8511067%" x2="50%" y2="76.6200946%" id="linearGradient-3">
            <stop stop-color="#C2EEED" offset="0%"></stop>
            <stop stop-color="#09A6A0" offset="100%"></stop>
        </linearGradient>
        <path d="M9.95522389,7.86755682 L7.04477611,7.86755682 C6.46776118,7.86755682 6,8.19770351 6,8.60496168 L6,9 L11,9 L11,8.60496168 C11,8.19770351 10.5322388,7.86755682 9.95522389,7.86755682 L9.95522389,7.86755682 Z M11,0.737404865 C11,0.330146692 10.5322388,0 9.95522389,0 L7.04477611,0 C6.46776118,0 6,0.330146692 6,0.737404865 L6,1.13244318 L11,1.13244318 L11,0.737404865 L11,0.737404865 Z" id="path-4"></path>
    </defs>
    <g id="页面-1" stroke="none" stroke-width="1" fill="none" fill-rule="evenodd">
        <g id="06宿舍信息" transform="translate(-60.000000, -413.000000)">
            <g id="01" transform="translate(30.000000, 397.000000)">
                <g id="床铺" transform="translate(30.000000, 16.000000)">
                    <circle id="椭圆形" fill-opacity="0.16" fill="#08A6A0" cx="13" cy="13" r="13"></circle>
                    <g id="编组" transform="translate(7.000000, 6.000000)" fill-rule="nonzero">
                        <g id="形状">
                            <use fill="#000000" xlink:href="#path-2"></use>
                            <use fill="url(#linearGradient-1)" xlink:href="#path-2"></use>
                        </g>
                        <g id="形状">
                            <use fill="#000000" xlink:href="#path-4"></use>
                            <use fill="url(#linearGradient-3)" xlink:href="#path-4"></use>
                        </g>
                    </g>
                </g>
            </g>
        </g>
    </g>
</svg>