<?xml version="1.0" encoding="UTF-8"?>
<svg width="22px" height="22px" viewBox="0 0 22 22" version="1.1" xmlns="http://www.w3.org/2000/svg" xmlns:xlink="http://www.w3.org/1999/xlink">
    <title>姓名</title>
    <g id="页面-1" stroke="none" stroke-width="1" fill="none" fill-rule="evenodd">
        <g id="06宿舍信息" transform="translate(-60.000000, -488.000000)" fill="#8C8C8C" fill-rule="nonzero">
            <g id="01" transform="translate(30.000000, 397.000000)">
                <g id="姓名" transform="translate(30.000000, 91.000000)">
                    <path d="M11,12.6296923 C7.8514935,12.6264284 5.29980792,10.0751214 5.29607693,6.92661539 C5.29980699,3.777972 7.85135661,1.22642238 11,1.2226923 C14.1483135,1.2264214 16.6997269,3.77745629 16.7039231,6.92576923 C16.7006583,10.0746057 14.1488364,12.6264276 11,12.6296923 M17.5187692,6.92661539 C17.518467,4.59753228 16.2756366,2.445532 14.2584403,1.28125223 C12.241244,0.116972468 9.75614193,0.117295019 7.73924795,1.28209839 C5.72235396,2.44690175 4.48008227,4.59922459 4.48038455,6.9283077 C4.48061827,10.5287582 7.3995495,13.4473106 11,13.4470769 C14.6004505,13.4468433 17.5190029,10.527912 17.5187692,6.92746154" id="形状"></path>
                    <path d="M11,1.6296923 C8.07627377,1.6334227 5.70718638,4.0028886 5.70392307,6.92661539 C5.70718732,9.85020475 8.07641064,12.2194281 11,12.2226923 C13.9239193,12.2194272 16.293279,9.84968903 16.2960769,6.92576923 C16.2923475,4.00237288 13.9233964,1.63342172 11,1.6296923 M4.88907693,6.92661539 C4.88907693,10.2968462 7.63061539,13.0375385 11,13.0375385 C14.3693846,13.0375385 17.1109231,10.296 17.1109231,6.92746154 C17.1109231,10.2968461 14.3693846,13.0366923 11,13.0366923 C7.63061539,13.0366923 4.88907693,10.2968461 4.88907693,6.92746154 M11,13.8515385 C7.1813077,13.8515385 4.07423077,10.7444615 4.07423077,6.92661539 C4.07423077,3.10707693 7.1813077,0 11,0 C14.8186923,0 17.9257692,3.10707693 17.9257692,6.92661539 C17.9257692,10.7444616 14.8186923,13.8515385 11,13.8515385" id="形状"></path>
                    <path d="M11,14.2593846 C16.3916923,14.2593846 20.7781538,17.5492308 20.7781538,21.593 L21.593,21.593 C21.593,17.0931538 16.8503077,13.4445385 11,13.4445385 C5.1496923,13.4445385 0.407,17.0923077 0.407,21.593 L1.22184616,21.593 C1.22184616,17.5483846 5.6083077,14.2593846 11,14.2593846" id="路径"></path>
                    <path d="M22,22 L20.3703077,22 L20.3703077,21.593 C20.3703077,17.7743077 16.1666154,14.6663846 11,14.6663846 C5.83338461,14.6663846 1.6296923,17.7743077 1.6296923,21.593 L1.6296923,22 L0,22 L0,21.593 C0,16.8748462 4.93476923,13.0366923 11,13.0366923 C17.0652308,13.0366923 22,16.8748461 22,21.593 L22,22 Z" id="路径"></path>
                </g>
            </g>
        </g>
    </g>
</svg>