<?xml version="1.0" encoding="UTF-8"?>
<svg width="22px" height="22px" viewBox="0 0 22 22" version="1.1" xmlns="http://www.w3.org/2000/svg" xmlns:xlink="http://www.w3.org/1999/xlink">
    <title>年龄</title>
    <g id="页面-1" stroke="none" stroke-width="1" fill="none" fill-rule="evenodd">
        <g id="06宿舍信息" transform="translate(-60.000000, -542.000000)" fill="#8C8C8C" fill-rule="nonzero">
            <g id="01" transform="translate(30.000000, 397.000000)">
                <g id="年龄" transform="translate(30.000000, 145.000000)">
                    <path d="M21.1850946,4.07452674 L19.5552839,4.07452674 L19.5552839,5.70372634 C19.5552839,6.15378613 19.1904384,6.51863168 18.7403786,6.51863168 C18.2903188,6.51863168 17.9254733,6.15378613 17.9254733,5.70372634 L17.9254733,4.07452674 L16.2962737,4.07452674 C16.005136,4.07452674 15.7361137,3.91920666 15.5905449,3.66707407 C15.4449761,3.41494148 15.4449761,3.10430131 15.5905449,2.85216872 C15.7361137,2.60003613 16.005136,2.44471605 16.2962737,2.44471605 L17.9254733,2.44471605 L17.9254733,0.814905352 C17.9254733,0.364845559 18.2903188,1.07421876e-08 18.7403786,1.07421876e-08 C19.1904384,1.07421876e-08 19.5552839,0.364845559 19.5552839,0.814905352 L19.5552839,2.44471605 L21.1850946,2.44471605 C21.6351544,2.44471606 22,2.80956161 22,3.2596214 C22,3.70968118 21.6351544,4.07452673 21.1850946,4.07452674 L21.1850946,4.07452674 Z M13.3525923,13.7867807 C12.8998934,14.1898996 12.3817966,14.5129093 11.820558,14.7419341 C11.3155323,14.9301188 10.7804019,15.0245536 10.2414689,15.0205969 C9.46755814,15.0719927 8.70284233,14.828803 8.10077638,14.3398286 C7.60763524,13.8986909 7.33398457,13.262632 7.35278676,12.6012416 C7.34824193,12.2051609 7.44567863,11.8145724 7.63572728,11.4670352 C7.81259517,11.1371338 8.06620286,10.8546022 8.37516146,10.6432688 C8.69083125,10.4315095 9.03909789,10.2729625 9.40609158,10.173942 C9.82541708,10.0753553 10.2505823,10.0035079 10.6790183,9.95883391 C11.5449508,9.87939058 12.4004944,9.71439285 13.2334273,9.46567409 C13.2389272,9.27012124 13.2413717,9.14484521 13.2413716,9.09167929 C13.2886749,8.64128341 13.1404762,8.19223685 12.8343773,7.85847419 C12.3691856,7.50166187 11.7893452,7.32773148 11.2045666,7.3695921 C10.6827728,7.33027217 10.1616206,7.45367486 9.7128651,7.7228094 C9.3389823,8.04680195 9.08748428,8.48918826 9.00031943,8.97618088 L7.59967222,8.78551687 C7.69469868,8.25956581 7.90989772,7.76266308 8.22849683,7.33353704 C8.56203717,6.93654842 9.00064747,6.64152952 9.49409035,6.48227108 C10.109972,6.27474276 10.7570579,6.17509568 11.4068416,6.18771961 C12.0038888,6.16877542 12.5984917,6.25494089 13.1655949,6.44193831 C13.547051,6.5657319 13.8898501,6.78640355 14.16047,7.08237385 C14.3859668,7.36775877 14.5387425,7.70325411 14.6065749,8.06013804 C14.666463,8.49768752 14.690296,8.94012582 14.6780739,9.38134192 L14.6780739,11.2910376 C14.6554631,12.1343593 14.6860183,12.9776809 14.7691282,13.8167248 C14.8314607,14.1729976 14.9536812,14.5164373 15.130901,14.8311551 L13.6391994,14.8311551 C13.4819287,14.503028 13.3850498,14.1492546 13.3532034,13.7867807 L13.3525923,13.7867807 Z M13.2328162,10.5876585 C12.4762712,10.8565437 11.6910043,11.0386522 10.8935154,11.1290954 C10.4672488,11.174702 10.047931,11.2709153 9.6444216,11.4157026 C9.4140359,11.5110346 9.21664975,11.6723657 9.07976279,11.8807517 C8.74208587,12.4087229 8.84190713,13.1043523 9.31442619,13.5160623 C9.67639017,13.7947096 10.1280284,13.9308317 10.5836863,13.8986125 C11.0977321,13.9083206 11.6054013,13.7836151 12.0564437,13.5368398 C12.4673539,13.3144061 12.798036,12.9685472 13.0018194,12.5480757 C13.1790392,12.0921932 13.2578714,11.6039222 13.2328162,11.1156512 L13.2328162,10.5876585 L13.2328162,10.5876585 Z M10.9998472,1.63011625 C5.82491895,1.63011625 1.6298107,5.8252245 1.6298107,11.0001528 C1.6298107,16.1750811 5.82491895,20.3701893 10.9998472,20.3701893 C16.1747755,20.3701893 20.3698837,16.1750811 20.3698837,11.0001528 C20.3698837,10.550093 20.7347293,10.1852474 21.1847891,10.1852474 C21.6348489,10.1852474 21.9996944,10.550093 21.9996944,11.0001528 C21.9996944,17.0752006 17.0748951,22 10.9998472,22 C4.92479935,22 0,17.0752006 0,11.0001528 C0,4.9251049 4.92479935,0.000305550781 10.9998472,0.000305550781 C11.2909849,0.000305550781 11.5600072,0.155625626 11.705576,0.407758222 C11.8511448,0.659890817 11.8511448,0.970530987 11.705576,1.22266358 C11.5600072,1.47479618 11.2909849,1.63011626 10.9998472,1.63011625 Z" id="形状"></path>
                </g>
            </g>
        </g>
    </g>
</svg>