<?xml version="1.0" encoding="UTF-8"?>
<svg width="22px" height="20px" viewBox="0 0 22 20" version="1.1" xmlns="http://www.w3.org/2000/svg" xmlns:xlink="http://www.w3.org/1999/xlink">
    <title>购买</title>
    <g id="页面-1" stroke="none" stroke-width="1" fill="none" fill-rule="evenodd">
        <g id="04信息填报-宿舍相关" transform="translate(-30.000000, -344.000000)" fill="#8C8C8C" fill-rule="nonzero">
            <g id="宿舍信息" transform="translate(0.000000, 309.000000)">
                <g id="购买" transform="translate(30.000000, 35.000000)">
                    <path d="M6.92008211,17.7318487 C6.9178046,18.3584553 7.25078136,18.9384457 7.7930603,19.2524117 C8.33533925,19.5663777 9.004116,19.5663777 9.54639494,19.2524117 C10.0886739,18.9384457 10.4216506,18.3584553 10.4193731,17.7318487 C10.4216506,17.105242 10.0886739,16.5252517 9.54639494,16.2112857 C9.004116,15.8973196 8.33533925,15.8973196 7.7930603,16.2112857 C7.25078136,16.5252517 6.9178046,17.105242 6.92008211,17.7318487 Z M14.1338464,17.7318487 C14.1338464,18.6981512 14.9171893,19.4814941 15.8834918,19.4814941 C16.8497944,19.4814941 17.6331373,18.6981512 17.6331373,17.7318487 C17.6331373,16.7655462 16.8497944,15.9822032 15.8834918,15.9822032 C14.9171893,15.9822032 14.1338464,16.7655462 14.1338464,17.7318487 Z M17.5574049,14.3680728 L7.44618079,14.3680728 C6.37805707,14.3680728 5.44944166,13.6466882 5.19036812,12.614434 L2.78316067,2.13255774 C2.70343495,1.82568147 2.41250849,1.59848421 2.07373259,1.59848421 L0.818274457,1.59848421 C0.379876444,1.59848421 0.0211807914,1.23978855 0.0211807914,0.80139054 C0.0211807914,0.362992527 0.379876444,0.004296875 0.818274457,0.004296875 L2.07767918,0.004296875 C3.14582626,0.004296875 4.07444166,0.725658118 4.33349185,1.76190557 L6.73675272,12.2398119 C6.81645508,12.5466882 7.10740489,12.7738621 7.44618079,12.7738621 L17.5574049,12.7738621 C17.8722677,12.7738621 18.155231,12.5745945 18.2548764,12.2716882 L20.2794986,5.2412534 C20.3671875,4.98220321 20.3313179,4.73907948 20.191833,4.54378184 C20.052348,4.34848421 19.8331373,4.23690557 19.5940069,4.23690557 L7.98422427,4.23690557 C7.5458029,4.23690557 7.18710725,3.87820992 7.18710725,3.43981191 C7.18710725,3.00141389 7.5458029,2.64269489 7.98422427,2.64269489 L19.5900136,2.64269489 C20.3472677,2.64269489 21.0367527,2.9974206 21.4831373,3.61117315 C21.9255286,4.22894234 22.0411005,4.99415973 21.7979768,5.71155104 L19.7733547,12.7419858 C19.4465353,13.7303838 18.5577594,14.3680728 17.5574049,14.3680728 Z" id="形状"></path>
                </g>
            </g>
        </g>
    </g>
</svg>