<?xml version="1.0" encoding="UTF-8"?>
<svg width="22px" height="22px" viewBox="0 0 22 22" version="1.1" xmlns="http://www.w3.org/2000/svg" xmlns:xlink="http://www.w3.org/1999/xlink">
    <title>宿舍号</title>
    <g id="页面-1" stroke="none" stroke-width="1" fill="none" fill-rule="evenodd">
        <g id="04信息填报-宿舍相关" transform="translate(-30.000000, -1059.000000)" fill="#8C8C8C" fill-rule="nonzero">
            <g id="宿舍信息" transform="translate(0.000000, 309.000000)">
                <g id="宿舍号" transform="translate(30.000000, 750.000000)">
                    <path d="M21.4041667,10.1383333 L12.21,0.6875 C11.7333333,0.174166674 11.275,0.0183333262 10.6425,0.0183333262 C10.01,0.0183333262 9.56083333,0.265833326 9.08416667,0.779166674 L0.6325,10.3216667 C-0.320833326,11.3483333 -0.229166674,12.265 1.16416667,12.265 L2.68583333,12.2741667 L2.68583333,19.8 C2.68583333,21.01 3.6575,21.9816667 4.84916667,21.9816667 L17.2516667,21.9816667 C18.4433333,21.9816667 19.415,21.0008333 19.415,19.8 L19.4608333,12.2191667 L20.955,12.21 C22.1741667,12.21 22.33,11.0641667 21.4041667,10.1383333 L21.4041667,10.1383333 Z M20.3775,10.9266667 L18.0858333,10.9266667 L18.095,19.3141667 C18.095,19.9191667 17.6916667,20.7991667 17.0958333,20.7991667 L5.42666667,20.7075 C4.40916667,20.7075 4.015,20.3408333 4.015,19.2133333 L4.06083333,10.9175 L1.68666667,10.9175 L1.705,10.8991667 L9.625,1.88833333 C9.88166667,1.61333333 10.285,1.46666667 10.6425,1.46666667 C11,1.46666667 11.33,1.61333335 11.5866667,1.88833333 L20.3866667,10.8991667 L20.405,10.9175 L20.3775,10.9266667 L20.3775,10.9266667 Z M14.3733333,10.3216667 L7.4525,10.3216667 C6.53583158,10.3216667 6.53583158,10.7066667 6.53583158,11.66 L6.53583158,17.1325 C6.53583158,18.205 6.52666665,18.6816667 7.8375,18.6816667 L14.41,18.6816667 C15.3541667,18.6816667 15.3450017,18.2325 15.3450017,17.0316667 L15.3450017,11.9625 C15.3358333,11.1375 15.3633333,10.3216667 14.3733333,10.3216667 L14.3733333,10.3216667 Z M11.6508333,11.4125 L13.8416667,11.4125 L13.8416667,13.695 L11.6508333,13.695 L11.6508333,11.4125 Z M7.95666667,11.4125 L10.2116667,11.4125 L10.2116667,13.695 L7.95666667,13.695 L7.95666667,11.4125 L7.95666667,11.4125 Z M7.95666667,17.5908333 L7.95666667,14.795 L10.23,14.7858333 L10.2483333,17.5725 L7.95666667,17.5908333 L7.95666667,17.5908333 Z M13.86,17.5908333 L11.6416667,17.6 L11.6416667,14.8041667 L13.86,14.8041667 L13.86,17.5908333 Z" id="形状"></path>
                </g>
            </g>
        </g>
    </g>
</svg>