<?xml version="1.0" encoding="UTF-8"?>
<svg width="50px" height="50px" viewBox="0 0 50 50" version="1.1" xmlns="http://www.w3.org/2000/svg" xmlns:xlink="http://www.w3.org/1999/xlink">
    <title>信息填报</title>
    <defs>
        <linearGradient x1="0%" y1="98.6228365%" x2="69.751413%" y2="25.7703481%" id="linearGradient-1">
            <stop stop-color="#53C9BB" offset="0%"></stop>
            <stop stop-color="#FAFDFD" offset="100%"></stop>
            <stop stop-color="#FFFFFF" offset="100%"></stop>
            <stop stop-color="#FFFFFF" offset="100%"></stop>
        </linearGradient>
    </defs>
    <g id="页面-1" stroke="none" stroke-width="1" fill="none" fill-rule="evenodd">
        <g id="02主页" transform="translate(-99.000000, -393.000000)">
            <g id="信息填报" transform="translate(88.000000, 393.000000)">
                <g transform="translate(11.000000, 0.000000)">
                    <polygon id="路径-2" fill="url(#linearGradient-1)" points="18.4359256 39.6973504 18.4359256 48.3708239 27.1930176 48.3708239 36.6519281 38.648016 27.7383178 30.4074372"></polygon>
                    <path d="M49.414,25.187 L41.636,17.409 C41.2609243,17.033905 40.7522008,16.8231771 40.22175,16.8231771 C39.6912992,16.8231771 39.1825757,17.033905 38.8075,17.409 L35.272,20.9445 L33.1505,23.066 L17.502,38.7145 C17.1100778,39.1064775 16.8984082,39.6435281 16.9175,40.1975 L16.823,48.07 C16.8400311,48.5764222 17.0489831,49.0574229 17.4075,49.4155 C17.765462,49.7741858 18.2465329,49.9831682 18.753,50 L26.6255,49.9055 C27.1794719,49.9245918 27.7165225,49.7129222 28.1085,49.321 L43.7575,33.672 L45.879,31.5505 L49.4145,28.015 C49.789621,27.6400084 50.0002373,27.1313061 50.0002373,26.6008964 C50.0002373,26.0704867 49.7892535,25.5618589 49.414,25.187 L49.414,25.187 Z M26.2945,46.8925 L19.789,47.034 L19.9305,40.5285 L35.272,25.187 L41.636,31.551 L26.2945,46.8925 L26.2945,46.8925 Z M43.7575,29.4295 L37.3935,23.0655 L40.222,20.237 L46.586,26.601 L43.7575,29.4295 L43.7575,29.4295 Z" id="形状" fill="#666666" fill-rule="nonzero"></path>
                    <path d="M13.8015,47 L5,47 C4.46956702,47 3.96085919,46.7892863 3.58578644,46.4142136 C3.21071368,46.0391408 3,45.530433 3,45 L3,5 C3,3.8954305 3.8954305,3 5,3 L40,3 C41.1045695,3 42,3.8954305 42,5 L42,13.337 C42,14.1654271 42.6715729,14.837 43.5,14.837 C44.3284271,14.837 45,14.1654271 45,13.337 L45,5 C45,2.2385 42.7615,0 40,0 L5,0 C2.2385,0 0,2.2385 0,5 L0,45 C0,47.7615 2.2385,50 5,50 L13.8015,50 C14.6299271,50 15.3015,49.3284271 15.3015,48.5 C15.3015,47.6715729 14.6299271,47 13.8015,47 Z M43.5,37.4295 C43.1021753,37.4295 42.7206444,37.5875353 42.4393398,37.8688398 C42.1580353,38.1501444 42,38.5316753 42,38.9295 L42,45 C42,46.1045695 41.1045695,47 40,47 L34.1059999,47 C33.5701016,47 33.074911,47.2858983 32.8069618,47.75 C32.5390126,48.2141016 32.5390126,48.7858984 32.8069618,49.25 C33.074911,49.7141017 33.5701016,50 34.1059999,50 L40,50 C42.7615,50 45,47.7615 45,45 L45,38.9295 C45,38.1010729 44.3284271,37.4295 43.5,37.4295 L43.5,37.4295 Z" id="形状" fill="#666666" fill-rule="nonzero"></path>
                    <path d="M36,10.827 C36,9.99857288 35.3284271,9.327 34.5,9.327 L7.5,9.327 C6.67157288,9.327 6,9.99857288 6,10.827 C6,11.6554271 6.67157288,12.327 7.5,12.327 L34.5,12.327 C35.3284271,12.327 36,11.6554271 36,10.827 L36,10.827 Z M7.5,19 C6.67157288,19 6,19.6715729 6,20.5 C6,21.3284271 6.67157288,22 7.5,22 L24.5,22 C25.3284271,22 26,21.3284271 26,20.5 C26,19.6715729 25.3284271,19 24.5,19 L7.5,19 Z M14.5,28.673 L7.5,28.673 C6.67157288,28.673 6,29.3445729 6,30.173 C6,31.0014271 6.67157288,31.673 7.5,31.673 L14.5,31.673 C15.3284271,31.673 16,31.0014271 16,30.173 C16,29.3445729 15.3284271,28.673 14.5,28.673 L14.5,28.673 Z" id="形状" fill="#666666" fill-rule="nonzero"></path>
                </g>
            </g>
        </g>
    </g>
</svg>