<?xml version="1.0" encoding="UTF-8"?>
<svg width="50px" height="50px" viewBox="0 0 50 50" version="1.1" xmlns="http://www.w3.org/2000/svg" xmlns:xlink="http://www.w3.org/1999/xlink">
    <title>我的宿舍</title>
    <defs>
        <linearGradient x1="50%" y1="104.630737%" x2="50%" y2="16.856597%" id="linearGradient-1">
            <stop stop-color="#53C9BB" offset="0%"></stop>
            <stop stop-color="#FFFFFF" offset="100%"></stop>
            <stop stop-color="#FFFFFF" offset="100%"></stop>
        </linearGradient>
        <path d="M22.0741761,26.0989746 C21.8474325,23.2437308 23.3511993,21.8161089 26.5854765,21.8161089 L48.0842011,21.8161089 L48.0842011,39.2147325 L22.0741761,39.2147325 L22.0741761,26.0989746 Z" id="path-2"></path>
    </defs>
    <g id="页面-1" stroke="none" stroke-width="1" fill="none" fill-rule="evenodd">
        <g id="02主页" transform="translate(-601.000000, -393.000000)">
            <g id="我的宿舍" transform="translate(590.000000, 393.000000)">
                <g transform="translate(11.000000, 0.000000)">
                    <g id="路径-4">
                        <use fill="#D8D8D8" xlink:href="#path-2"></use>
                        <use fill="url(#linearGradient-1)" xlink:href="#path-2"></use>
                    </g>
                    <path d="M3.125,40.6770996 L3.125,48.4375 C3.125,49.3004883 2.42548828,50 1.5625,50 C0.699511719,50 0,49.3004883 0,48.4375 L0,1.5625 C0,0.699511719 0.699511719,0 1.5625,0 C2.42548828,0 3.125,0.699511719 3.125,1.5625 L3.125,15.5729004 L15.625,15.5729004 L15.625,15 C15.625,14.968457 15.6259766,14.9370605 15.6277832,14.9060059 L15.625,14.9060059 L15.625,9.89584961 C15.625,6.15639648 18.6563965,3.125 22.3958496,3.125 L46.875,3.125 L46.875,1.5625 C46.875,0.699511719 47.5745117,0 48.4375,0 C49.3004883,0 50,0.699511719 50,1.5625 L50,48.4375 C50,49.3004883 49.3004883,50 48.4375,50 C47.5745117,50 46.875,49.3004883 46.875,48.4375 L46.875,40.6770996 L3.125,40.6770996 Z M3.125,37.5520996 L15.625,37.5520996 L15.625,33.3333496 L3.125,33.3333496 L3.125,37.5520996 Z M3.125,30.2083496 L15.625,30.2083496 L15.625,25.9895996 L3.125,25.9895996 L3.125,30.2083496 Z M3.125,22.8645996 L15.625,22.8645996 L15.625,18.6979004 L3.125,18.6979004 L3.125,22.8645996 Z M46.875,6.25 L22.3958496,6.25 C20.5591309,6.25 19.0396484,7.6081543 18.7869629,9.375 L46.875,9.375 L46.875,6.25 Z M18.75,12.5 L18.75,14.9060059 L18.7472168,14.9060059 C18.7490723,14.9370605 18.75,14.9685059 18.75,15 L18.75,15.5729004 L46.875,15.5729004 L46.875,12.5 L18.75,12.5 Z M46.875,18.6979004 L18.75,18.6979004 L18.75,37.5520996 L46.875,37.5520996 L46.875,18.6979004 Z" id="形状" fill="#666666" fill-rule="nonzero"></path>
                </g>
            </g>
        </g>
    </g>
</svg>