<?xml version="1.0" encoding="UTF-8"?>
<svg width="50px" height="50px" viewBox="0 0 50 50" version="1.1" xmlns="http://www.w3.org/2000/svg" xmlns:xlink="http://www.w3.org/1999/xlink">
    <title>新生引导</title>
    <defs>
        <linearGradient x1="74.0577723%" y1="50%" x2="10.2594563%" y2="50%" id="linearGradient-1">
            <stop stop-color="#53C9BB" offset="0%"></stop>
            <stop stop-color="#FFFFFF" offset="100%"></stop>
            <stop stop-color="#FFFFFF" offset="100%"></stop>
        </linearGradient>
    </defs>
    <g id="页面-1" stroke="none" stroke-width="1" fill="none" fill-rule="evenodd">
        <g id="02主页" transform="translate(-266.000000, -393.000000)">
            <g id="新生引导" transform="translate(255.000000, 393.000000)">
                <g transform="translate(11.000000, 0.000000)">
                    <polygon id="路径-2" fill="url(#linearGradient-1)" points="21.553184 24.4696192 21.553184 40.9633867 38.9422629 40.9633867 48.553184 32.8062469 38.9422629 24.4696192"></polygon>
                    <path d="M49.5095168,31.7081503 L41.7984383,23.8994631 C41.5056125,23.6017569 41.1054173,23.4358223 40.6857003,23.4358224 L26.5275744,23.4358224 L26.5275744,18.7408492 L45.2733041,18.7408492 C47.8550513,18.7408492 49.9585164,16.6373841 49.9585164,14.0556369 L49.9585164,4.6852123 C49.9585164,2.10346509 47.8550513,0 45.2733041,0 L9.44119082,0 C9.0263543,0 8.63103955,0.165934619 8.33821377,0.453879932 L0.480722314,8.2772084 C0.187896533,8.57003418 0.0219619141,8.97022939 0.0219619141,9.38506587 C0.0219619141,9.79990234 0.187896533,10.2000976 0.485602734,10.4929234 L8.34309419,18.2869692 C8.63591997,18.5749146 9.03123477,18.7408492 9.44119082,18.7408492 L23.40898,18.7408492 L23.40898,23.4358224 L4.70717422,23.4358224 C2.125427,23.4358224 0.0219619141,25.5392875 0.0219619141,28.1210347 L0.0219619141,37.4914592 C0.0219619141,40.0732064 2.125427,42.1766715 4.70717422,42.1766715 L23.40898,42.1766715 L23.40898,48.3894583 C23.40898,49.2532943 24.1068814,49.9511957 24.9707174,49.9511957 C25.8345535,49.9511957 26.5324549,49.2532943 26.5324548,48.3894583 L26.5324548,42.1766715 L40.6905808,42.1766715 C41.1102977,42.1766715 41.5104929,42.0107369 41.8033187,41.7130308 L49.5143973,33.9043436 C50.1098097,33.2942899 50.1098097,32.318204 49.5095168,31.7081503 Z M3.79941436,9.38018545 L10.0854075,3.12347485 L45.2733041,3.12347485 C46.1322596,3.12347485 46.8350415,3.82625669 46.8350415,4.6852123 L46.8350415,14.0556369 C46.8350415,14.9145925 46.1322597,15.6173743 45.2733041,15.6173743 L10.0854075,15.6173743 L3.79941436,9.38018545 Z M40.0366032,39.0531967 L4.70717422,39.0531967 C3.84821865,39.0531967 3.14543682,38.3504148 3.14543682,37.4914592 L3.14543682,28.1210347 C3.14543682,27.2620791 3.84821865,26.5592972 4.70717422,26.5592972 L40.0366032,26.5592972 L46.2054661,32.806247 L40.0366032,39.0531967 L40.0366032,39.0531967 Z" id="形状" fill="#666666" fill-rule="nonzero"></path>
                </g>
            </g>
        </g>
    </g>
</svg>