<?xml version="1.0" encoding="UTF-8"?>
<svg width="46px" height="50px" viewBox="0 0 46 50" version="1.1" xmlns="http://www.w3.org/2000/svg" xmlns:xlink="http://www.w3.org/1999/xlink">
    <title>常见问题</title>
    <defs>
        <linearGradient x1="69.4876722%" y1="24.920954%" x2="50%" y2="57.2739389%" id="linearGradient-1">
            <stop stop-color="#53C9BB" offset="0%"></stop>
            <stop stop-color="#FFFFFF" offset="100%"></stop>
            <stop stop-color="#FFFFFF" offset="100%"></stop>
        </linearGradient>
        <path d="M10.5212755,23.3248451 C17.3777059,10.3876221 24.298509,7.71731426 31.2836849,15.3139216 C29.6792953,22.8794315 28.4785673,27.0899868 27.6815007,27.9455875 C26.8844342,28.8011881 21.1643591,27.2609407 10.5212755,23.3248451 Z" id="path-2"></path>
    </defs>
    <g id="页面-1" stroke="none" stroke-width="1" fill="none" fill-rule="evenodd">
        <g id="02主页" transform="translate(-435.000000, -393.000000)">
            <g id="常见问题" transform="translate(422.000000, 393.000000)">
                <g transform="translate(13.000000, 0.000000)">
                    <path d="M10.2443745,35.5338728 L23.2364309,46.5888951 L35.4603233,35.7209821 C35.4824941,35.7012741 35.505199,35.6821085 35.5284154,35.6635045 C39.8497816,32.1998884 42.3868036,27.1368862 42.3868036,21.6803571 C42.3868036,11.555692 33.6953665,3.34821429 22.9740517,3.34821429 C12.2527961,3.34821429 3.56135896,11.555692 3.56135896,21.6802455 C3.56135896,27.0006138 5.97236328,31.9492746 10.1089587,35.4089286 C10.1562513,35.4484633 10.201445,35.4901809 10.2443745,35.5339286 L10.2443745,35.5338728 Z M0.014895148,21.6803013 C0.014895148,9.70669643 10.2939659,0 22.9741108,0 C35.6541966,0 45.9333265,9.70669643 45.9333265,21.6802455 C45.9333265,28.115346 42.944485,34.0948661 37.8590923,38.1873884 L25.6678274,49.0263951 C24.3237767,50.2213728 22.233491,50.2429129 20.8621325,49.0760603 L7.73448294,37.9055804 C7.69387992,37.8710796 7.65485309,37.8349605 7.61750874,37.7973214 C2.81429636,33.7143973 0.014895148,27.9089286 0.014895148,21.6802455 L0.014895148,21.6803013 Z" id="形状" fill="#666666" fill-rule="nonzero"></path>
                    <g id="路径-3">
                        <use fill="#D8D8D8" xlink:href="#path-2"></use>
                        <use fill="url(#linearGradient-1)" xlink:href="#path-2"></use>
                    </g>
                    <path d="M24.7056127,29.3243862 C24.7056127,30.2029576 23.9519891,30.9151786 23.0224609,30.9151786 C22.0928737,30.9151786 21.3393092,30.2029576 21.3393092,29.3243862 L21.3393092,28.3239955 C21.3393092,28.2889509 21.3404914,28.2539063 21.3429739,28.2189174 C21.4543329,26.6291853 22.0810521,25.3868862 23.1806332,24.4439174 C23.6248278,24.063058 24.1295487,23.7425223 24.7239361,23.4431362 C25.1530582,23.2270089 25.5488435,23.0560826 26.2443051,22.7743862 L26.5001825,22.6708705 C26.5980649,22.63125 26.6757324,22.5996652 26.7502082,22.5691406 C28.0237433,22.0473772 28.6832674,21.6757813 29.1832597,21.1489397 C29.7985711,20.5003906 30.1363718,19.5864397 30.1477796,18.163058 C30.1446469,14.5235491 27.030497,11.7195313 23.0224609,11.7195313 C19.0124152,11.7195313 15.8971423,14.5264509 15.8971423,18.1685826 C15.8971423,19.047154 15.1435187,19.759375 14.2139905,19.759375 C13.2844033,19.759375 12.5308388,19.047154 12.5308388,18.1685268 C12.5308388,12.7343192 17.1882915,8.53794643 23.0224609,8.53794643 C28.8566303,8.53794643 33.5140831,12.734375 33.5140831,18.1685268 L33.5140831,18.1796875 C33.4979466,20.3484933 32.8828125,22.0152902 31.6893683,23.2731027 C31.1813374,23.8084821 30.5873638,24.2518973 29.8911338,24.6441964 C29.3676167,24.9390625 28.8416761,25.1799107 28.0891165,25.4882813 C28.0096757,25.5208147 27.9278706,25.5541295 27.8259689,25.5953125 C27.7842388,25.6122768 27.6135948,25.68125 27.5702688,25.6988281 C26.383622,26.1794085 25.8576223,26.4443638 25.442627,26.8001674 C25.0032201,27.1770089 24.7661981,27.6363839 24.7055536,28.3805246 L24.7055536,29.3243862 L24.7056127,29.3243862 Z" id="路径" fill="#666666" fill-rule="nonzero"></path>
                    <path d="M20.8059211,34.4866071 C20.8059211,35.6577467 21.8115315,36.6071429 23.0520148,36.6071429 C24.2924981,36.6071429 25.2981086,35.6577467 25.2981086,34.4866071 C25.2981086,33.3154676 24.2924981,32.3660714 23.0520148,32.3660714 C21.8115315,32.3660714 20.8059211,33.3154676 20.8059211,34.4866071 Z" id="路径" fill="#666666" fill-rule="nonzero"></path>
                </g>
            </g>
        </g>
    </g>
</svg>