<?xml version="1.0" encoding="UTF-8"?>
<svg width="123px" height="112px" viewBox="0 0 123 112" version="1.1" xmlns="http://www.w3.org/2000/svg" xmlns:xlink="http://www.w3.org/1999/xlink">
    <title>机器人</title>
    <g id="页面-1" stroke="none" stroke-width="1" fill="none" fill-rule="evenodd">
        <g id="05常见问题" transform="translate(-596.000000, -144.000000)">
            <g id="搜索" transform="translate(-0.963301, 129.000000)">
                <g id="机器人" transform="translate(597.963301, 15.000000)">
                    <g transform="translate(0.000000, 45.000000)">
                        <g id="身体" transform="translate(14.117647, 47.058824)">
                            <path d="M15.2882353,2.13962181e-12 C23.7316945,2.13962181e-12 30.5764706,6.84477609 30.5764706,15.2882353 C30.5764706,15.2902393 30.5764702,15.2922432 30.5764694,15.294247 L0,15.294 C0,6.95031933 6.67472618,0.171369196 14.9723652,0.00319824252 Z" id="形状结合" fill="#FFFFFF" opacity="0.86"></path>
                            <path d="M10.2284646,0.863277036 C17.1371472,-1.55970576 24.7937884,1.25592972 28.4867552,7.57753846 C28.4884157,7.58092938 28.4901578,7.58263067 28.4918154,7.58603325 C28.5495602,7.68287851 28.6056464,7.78142992 28.660074,7.88168748 C29.9352555,10.1819056 30.5764342,12.7356769 30.5750623,15.2942356 L29.9802146,15.2949025 C29.9395705,12.8948752 29.3112434,10.5072613 28.1030674,8.35432204 C28.049561,8.25739978 27.9927927,8.16048898 27.9343088,8.06523983 C27.9326793,8.06189363 27.9309667,8.06022053 27.9293342,8.05688579 C24.3412598,1.98636615 16.9500948,-0.681098372 10.3141014,1.69956477 C4.48083091,3.792251 0.675135885,9.2675843 0.577617065,15.2945289 L7.74805072e-06,15.2940566 C-0.00645347932,8.88275805 4.02869533,3.03763286 10.2284646,0.863277036 Z" id="形状结合" fill="#3F3D56" fill-rule="nonzero"></path>
                            <path d="M27.0356523,8.33366507 C26.7379077,8.12154626 26.3817121,8.00697615 26.0161376,8.00573879 L19.3332724,8.00573879 C18.3638735,8.00573879 17.5780204,8.79159188 17.5780204,9.76099078 C17.5780204,10.7303897 18.3638735,11.5162497 19.3332724,11.5162497 L26.0161376,11.5162497 C26.1354161,11.516579 26.2544116,11.5046204 26.3712379,11.4805565 C26.4875772,11.4554371 26.6013411,11.4196008 26.7110732,11.3735064 C27.2927691,11.1228964 27.6942392,10.5782249 27.7614851,9.94842065 C27.8287309,9.31861635 27.5513124,8.70145817 27.0356435,8.33367963 L27.0356523,8.33366507 Z" id="路径" fill="#3F3D56" fill-rule="nonzero"></path>
                            <circle id="椭圆形" fill="#F1F1F1" fill-rule="nonzero" cx="19.7782147" cy="9.76088299" r="1"></circle>
                            <circle id="椭圆形" fill="#F1F1F1" fill-rule="nonzero" cx="22.6743642" cy="9.76088299" r="1"></circle>
                            <circle id="椭圆形" fill="#00BFA6" fill-rule="nonzero" cx="25.5705166" cy="9.76088299" r="1"></circle>
                        </g>
                        <ellipse id="椭圆形" stroke="#3F3D56" stroke-width="0.5" fill="#FFFFFF" transform="translate(14.798705, 62.546980) rotate(-15.000000) translate(-14.798705, -62.546980) " cx="14.798705" cy="62.5469797" rx="2.10294118" ry="2.69117647"></ellipse>
                        <ellipse id="椭圆形备份" stroke="#3F3D56" stroke-width="0.5" fill="#FFFFFF" transform="translate(43.529412, 62.546980) rotate(22.000000) translate(-43.529412, -62.546980) " cx="43.5294118" cy="62.5469797" rx="2.10294118" ry="2.69117647"></ellipse>
                        <circle id="椭圆形" fill="#FFFFFF" fill-rule="nonzero" opacity="0.859979539" cx="29.4117647" cy="23.5294118" r="23.5294118"></circle>
                        <path d="M51.3425542,14.5877622 C51.1353363,14.5573754 50.9254232,14.5380254 50.7153726,14.5242222 C53.1015346,20.0231126 53.2669245,26.2321125 51.1768879,31.8502359 C51.3868011,31.8253817 51.594019,31.7922286 51.8012368,31.7535428 C55.9798425,30.9439604 58.9599942,27.2310654 58.846303,22.9762748 C58.7326118,18.7214843 55.5584315,15.1730377 51.3425542,14.5877622 L51.3425542,14.5877622 Z" id="路径" fill="#3F3D56" fill-rule="nonzero"></path>
                        <path d="M8.13395211,14.5242222 C7.92390158,14.5380301 7.71398843,14.5573801 7.50677053,14.5877622 C3.29094509,15.1731023 0.116834119,18.7215319 0.00314520646,22.9762801 C-0.110543707,27.2310282 2.86954178,30.943901 7.04809264,31.7535428 C7.2553058,31.7922286 7.46252369,31.8253817 7.67243685,31.8502359 C5.58257896,26.2320827 5.74796705,20.0231518 8.13395211,14.5242222 L8.13395211,14.5242222 Z" id="路径" fill="#3F3D56" fill-rule="nonzero"></path>
                        <path d="M51.3425542,14.5877622 C46.6270875,3.32408825 34.1410563,-2.53082086 22.4661106,1.04711429 C10.7911648,4.62504943 3.72964921,16.4705521 6.13494382,28.4422076 C8.54023843,40.4138631 19.628977,48.6126932 31.7798688,47.4036414 C43.9307606,46.1945896 53.1864529,35.9714249 53.1855079,23.7605291 C53.1843526,20.6110991 52.5579249,17.4932372 51.3425542,14.5877622 Z M51.1768879,31.8502359 C46.987727,43.1109117 34.8951639,49.3108843 23.3065988,46.1395995 C11.7180338,42.9683147 4.46736716,31.4749437 6.59565237,19.6502961 C8.72393758,7.82564857 19.5270638,-0.418270791 31.4941167,0.650154107 C43.4611697,1.718579 52.6329316,11.745876 52.6329316,23.7605291 C52.6320546,26.5221875 52.1389977,29.2615872 51.1768879,31.8502359 L51.1768879,31.8502359 Z" id="形状" fill="#3F3D56" fill-rule="nonzero"></path>
                        <path d="M41.58141,18.3729112 L17.2680521,18.3729112 C14.5977324,18.3729112 12.4330105,20.537633 12.4330105,23.2079528 C12.4330105,25.8782725 14.5977324,28.0429943 17.2680521,28.0429943 L41.58141,28.0429943 C44.2517297,28.0429943 46.4164516,25.8782725 46.4164516,23.2079528 C46.4164516,20.537633 44.2517297,18.3729112 41.58141,18.3729112 Z" id="路径" fill="#3F3D56" fill-rule="nonzero"></path>
                    </g>
                    <g id="气泡" transform="translate(59.000000, 0.000000)" fill-rule="nonzero">
                        <path d="M17.5251264,58.3194064 C14.8151814,59.9446239 9.98701652,61.9810616 5.05315531,59.8882516 L1.86379356,58.5353912 L8.25504652,51.3708688 C-2.31297408,39.7186184 -2.29478513,21.9431464 8.29705991,10.3125481 C18.8889049,-1.31805014 36.5851727,-2.99430986 49.172432,6.44067294 C61.7596913,15.8756557 65.1151344,33.3315642 56.9229356,46.7608559 C48.7307368,60.1901476 31.6741537,65.1942171 17.5251264,58.3194064 L17.5251264,58.3194064 Z" id="路径" fill="#FFFFFF" opacity="0.864304315"></path>
                        <rect id="矩形" fill="#00BFA6" x="14" y="24" width="20" height="2"></rect>
                        <rect id="矩形" fill="#00BFA6" x="14" y="30" width="34" height="2"></rect>
                        <rect id="矩形" fill="#00BFA6" x="14" y="36" width="34" height="2"></rect>
                        <path d="M17.5417472,58.7055744 C14.9377744,60.2343854 9.97737927,62.3472023 4.92013466,60.2017809 L1.29313466,58.6633258 L7.79784762,51.3717511 C-3.50131048,38.6619935 -2.39057327,19.2069824 10.2817146,7.86581709 C22.9540025,-3.47534821 42.4125836,-2.42901288 53.7956318,10.2056665 C65.1786801,22.8403458 64.1967581,42.3022837 51.5998256,53.7270902 L51.5998256,53.7270902 C42.3291125,62.1861095 28.8458513,64.1570432 17.541754,58.7055744 L17.5417472,58.7055744 Z M53.222444,10.5876094 C45.9788901,2.59685731 35.0220426,-0.92165953 24.4804548,1.35784026 C13.9388669,3.63734005 5.4146192,11.3684246 2.1196583,21.638012 C-1.1753026,31.9075994 1.25978207,43.1549471 8.50736949,51.1420411 L8.7132129,51.3690905 L2.43446949,58.4074974 L5.18619301,59.574702 C10.0704065,61.6465921 14.9035927,59.4943609 17.3499219,58.0272637 L17.5080662,57.9322845 L17.6739877,58.0129594 C30.6810269,64.3329799 46.3430558,60.539418 55.0165557,48.9680686 C63.6900555,37.3967192 62.9375798,21.299389 53.2224474,10.5876231 L53.222444,10.5876094 Z" id="形状" fill="#3F3D56"></path>
                        <path d="M56.6334966,30.674584 C56.6326006,16.1237677 45.5204681,3.98221132 31.0266518,2.69553064 C31.8448644,2.62385591 32.6725031,2.58507525 33.5093055,2.58507525 C49.0160938,2.59442868 61.5818712,15.1677879 61.5818712,30.6745789 C61.5818712,46.18137 49.0160938,58.7547292 33.5093055,58.7640826 C32.6737636,58.7640826 31.8475454,58.7248012 31.0305728,58.6532798 C45.5226978,57.3646959 56.6325894,45.2238842 56.6334966,30.674584 Z" id="路径" fill="#000000" opacity="0.083328683"></path>
                    </g>
                </g>
            </g>
        </g>
    </g>
</svg>