<?xml version="1.0" encoding="UTF-8"?>
<svg width="31px" height="31px" viewBox="0 0 31 31" version="1.1" xmlns="http://www.w3.org/2000/svg" xmlns:xlink="http://www.w3.org/1999/xlink">
    <title>search</title>
    <g id="页面-1" stroke="none" stroke-width="1" fill="none" fill-rule="evenodd">
        <g id="07通知公告" transform="translate(-331.000000, -168.000000)" fill="#D1D1D1" fill-rule="nonzero">
            <g id="搜索" transform="translate(32.000000, 149.000000)">
                <g transform="translate(299.000000, 18.000000)" id="search">
                    <path d="M23.3178842,22.6317307 C27.7726281,27.0812245 30,29.3059714 30,29.3059714 C30.2475922,29.6489465 30.4825033,30.3942404 29.8950948,31.0121891 C29.3076863,31.6301378 28.3985819,31.3414655 28.1373863,31.0753796 C28.1373863,31.0753796 25.9093769,28.8499835 21.4533581,24.3991914 C19.1677145,26.2979042 16.3965322,27.3643741 13.191929,27.3643741 C5.90621039,27.3643741 0,21.4625027 0,14.182187 C0,6.90187143 5.90621039,1 13.191929,1 C20.47761,1 26.3838204,6.90187143 26.3838204,14.182187 C26.3838204,17.3974332 25.2318867,20.343837 23.3178842,22.6317307 Z M13.2142974,24.9313297 C19.1388199,24.9313297 23.9415701,20.1285742 23.9415701,14.204057 C23.9415701,8.27953975 19.1388199,3.47678426 13.2142974,3.47678426 C7.28977493,3.47678426 2.48702466,8.27953975 2.48702466,14.204057 C2.48702466,20.1285742 7.28977493,24.9313297 13.2142974,24.9313297 Z"></path>
                </g>
            </g>
        </g>
    </g>
</svg>