<?xml version="1.0" encoding="UTF-8"?>
<svg width="112px" height="112px" viewBox="0 0 112 112" version="1.1" xmlns="http://www.w3.org/2000/svg" xmlns:xlink="http://www.w3.org/1999/xlink">
    <title>男头像</title>
    <g id="页面-1" stroke="none" stroke-width="1" fill="none" fill-rule="evenodd">
        <g id="02主页" transform="translate(-40.000000, -176.000000)" fill-rule="nonzero">
            <g id="学生信息" transform="translate(0.000000, 129.000000)">
                <g id="男头像" transform="translate(40.000000, 47.000000)">
                    <path d="M111.694552,55.8472788 C111.694552,86.6908759 86.6908698,111.694552 55.8472727,111.694552 C25.0036757,111.694552 0,86.6908759 0,55.8472788 C0,25.0036818 25.0036757,0 55.8472727,0 C70.6610117,-0.00691722581 84.870007,5.87475168 95.3449034,16.3496481 C105.8198,26.8245446 111.701469,41.0335398 111.694552,55.8472788 Z" id="路径" fill="#0AAAA4"></path>
                    <rect id="矩形" fill="#FFB8B8" x="47.209697" y="74.1830279" width="15.2727273" height="15.2727273"></rect>
                    <g id="编组-2" transform="translate(21.000000, 20.000000)">
                        <circle id="椭圆形" fill="#FFB8B8" cx="34.0304331" cy="38.2188089" r="24.0830836"></circle>
                        <path d="M63.3093794,21.8273099 C62.784681,21.1152885 62.3051534,20.3710614 61.8736202,19.5990109 C61.126876,17.780299 62.3064024,15.6370166 61.2042513,13.9387345 C60.0791442,12.205078 57.222876,11.8394634 55.2795192,10.6616824 C52.285819,8.84733414 51.7416574,5.2871499 48.9367636,3.28777697 C46.9158182,1.84720808 44.0338594,1.4588897 41.3332533,1.54106828 C38.6326473,1.62324687 35.9681463,2.11150222 33.2664218,2.16508121 C29.619643,2.24645723 26.0012645,1.50650036 22.6792057,-2.75604455e-14 L24.6722885,3.89871192 C22.4575598,3.4159742 20.3416108,2.55831744 18.4158036,1.36277333 C17.5342845,2.45617778 19.1470845,4.11577535 18.1471071,5.14135919 C17.7372793,5.47219668 17.2523116,5.69706101 16.7350085,5.79610505 C12.8907787,6.88851267 9.27093473,8.6545148 6.04387314,11.0119564 C5.2968594,11.4871249 4.67885736,12.1395459 4.24483314,12.9111919 C3.72533415,14.0624808 4.1859596,15.3340444 4.14662869,16.5581511 C4.07516849,18.7824356 2.37702223,20.7220299 1.17207031,22.7257729 C-0.0328816106,24.729516 -0.683503025,27.3273083 1.10360324,29.0279434 C1.53840539,29.3734099 1.95521098,29.7409398 2.352379,30.1290861 C4.14298263,32.2412477 0.973340612,35.3344194 2.50106586,37.5757705 C3.16438384,38.5489131 4.52398304,39.0414093 5.70567516,39.6163232 C7.96901999,40.6745348 9.87332766,42.3717916 11.1839459,44.4989543 L10.2654812,37.7574141 C10.1677404,37.4195835 10.2355609,37.0554286 10.4483661,36.7754343 C10.8932113,36.3220234 11.8249673,36.502762 12.4389406,36.2025115 C13.1145414,35.8721164 13.1655669,35.1142465 13.1387192,34.4795022 L12.9319539,29.5849697 C12.8389794,27.3840356 12.813263,27.0917624 14.4341891,25.3152129 C15.5666271,24.0740461 17.3480703,23.3251814 19.1374327,22.7744517 C23.2265156,21.5159208 27.6245245,21.080598 31.9716113,20.6551855 C37.0198537,20.1611572 42.7042497,17.7116703 46.6247152,20.3123976 C49.833979,22.4413349 50.9010012,25.9406869 52.4473059,29.0441956 C53.8372049,31.8336905 57.4043968,40.0470238 60.3740162,35.6010925 C62.2389632,32.8090117 65.0914174,24.9360808 63.3093794,21.8273099 Z" id="路径" fill="#2F2E41"></path>
                    </g>
                    <path d="M84.8315406,103.591487 C65.9504912,115.045642 42.0944295,114.304089 23.9612376,101.699366 C27.7600681,93.7080292 35.8159608,88.6136675 44.6642679,88.6072449 L63.3309345,88.6072449 C72.9286904,88.6061567 81.5101379,94.586755 84.8315406,103.591487 L84.8315406,103.591487 Z" id="路径" fill="#2F2E41"></path>
                </g>
            </g>
        </g>
    </g>
</svg>